<!DOCTYPE svg PUBLIC "-//W3C//DTD SVG 1.1//EN" "http://www.w3.org/Graphics/SVG/1.1/DTD/svg11.dtd">
<!-- Uploaded to: SVG Repo, www.svgrepo.com, Transformed by: SVG Repo Mixer Tools -->
<svg height="800px" width="800px" version="1.1" id="_x32_" xmlns="http://www.w3.org/2000/svg" xmlns:xlink="http://www.w3.org/1999/xlink" viewBox="0 0 512 512" xml:space="preserve" fill="#ffffff" stroke="#ffffff">
<g id="SVGRepo_bgCarrier" stroke-width="0"/>
<g id="SVGRepo_tracerCarrier" stroke-linecap="round" stroke-linejoin="round"/>
<g id="SVGRepo_iconCarrier"> <style type="text/css"> .st0{fill:#ffffff;} </style> <g> <path class="st0" d="M297.428,39.447c5.962,6.298,11.691,12.986,17.156,20.011c3.726-1.508,7.469-2.971,11.256-4.302 c18.707-6.617,37.956-10.671,56.885-11.824c5.109-0.319,10.2-0.408,15.248-0.319c-2.972-3.149-6.068-6.174-9.305-9.012 c-19-16.676-42.444-27.906-67.591-32.111c-1.278,5.562-3.212,11.195-6.015,16.57c-2.82,5.428-6.528,10.555-10.928,15.034 C302.059,35.624,299.788,37.611,297.428,39.447z"/> <path class="st0" d="M383.772,58.979c-17.386,1.286-35.108,5.163-52.512,11.425c-2.252,0.816-4.514,1.668-6.776,2.572 c8.71,12.658,16.605,26.283,23.453,40.662c5.234-2.085,10.715-3.708,16.392-4.56c9.704-1.525,19.825-0.612,28.846,2.306 c9.065,2.866,17.013,7.398,24.145,12.241c6.351,4.382,12.125,9.03,17.651,13.589c0.062-11.664-1.375-23.532-4.479-35.392 c-4.134-15.763-10.858-30.132-19.577-42.79C402.027,58.358,392.961,58.296,383.772,58.979z"/> <path class="st0" d="M173.618,190.711h10.626c3.362-6.271,6.99-12.622,10.804-18.893c9.632-15.808,20.534-31.614,33.156-46.684 c12.534-14.991,26.886-29.431,43.597-41.876c8.356-6.174,17.076-11.718,26.345-16.349c0.452-0.274,0.904-0.452,1.358-0.727 c-4.995-6.36-10.263-12.445-15.71-18.166c-9.172,4.718-19.169,7.992-29.157,10.174c-11.992,2.723-23.799,4.089-34.975,5.446 c-11.168,1.455-21.794,2.91-31.605,5.357c-3.273,0.817-6.448,1.73-9.536,2.821c-7.451,13.891-12.631,29.156-14.902,45.052 c-2.537,17.528-1.632,35.783,3.095,54.046C168.526,177.814,170.797,184.351,173.618,190.711z"/> <path class="st0" d="M301.225,11.08c1.89-3.451,3.317-7.114,4.417-10.902C292-0.522,278.02,0.826,264.059,4.48 c-1.668,0.443-3.326,0.914-4.968,1.402c9.146,6.582,18.131,13.926,26.771,22.051C292.399,23.321,297.73,17.75,301.225,11.08z"/> <path class="st0" d="M271.598,35.793c-9.447-8.817-19.257-16.685-29.218-23.622c-18.016,8.134-33.6,19.86-46.152,34.142 c-1.623,1.845-3.166,3.743-4.692,5.668c19.701-4.337,40.094-5.394,59.537-9.748C258.24,40.671,265.177,38.533,271.598,35.793z"/> <path class="st0" d="M333.3,121.044c-6.999-14.805-14.991-28.616-23.888-41.424c-1.366,0.549-2.635,1.188-3.912,1.818 c-8.266,4.177-16.259,9.269-23.976,14.99c-15.355,11.354-28.882,24.891-40.963,39.145c-12.082,14.263-22.708,29.343-32.154,44.511 c-2.183,3.54-4.364,7.088-6.449,10.626h82.564c0.452-1.996,1.092-3.903,1.721-5.908c2.732-8.622,6.183-17.252,10.724-25.519 c4.63-8.267,10.262-16.17,17.164-23.072C319.942,130.304,326.39,125.222,333.3,121.044z"/> <path class="st0" d="M340.014,136.124c-5.171,3.264-9.899,7.176-14.254,11.531c-11.54,11.629-19.08,26.522-24.163,42.151 c-0.088,0.266-0.186,0.63-0.275,0.905h55.954C353.098,172.545,347.465,154.192,340.014,136.124z"/> <path class="st0" d="M423.492,190.711c4.994-10.99,8.356-22.796,10.086-34.877c0,0,0,0,0-0.089 c-8.356-6.546-16.446-13.358-25.076-19.08c-6.352-4.266-13.075-7.903-20.074-9.988c-6.99-2.182-14.254-2.82-21.617-1.64 c-4.089,0.726-8.17,1.906-12.259,3.459c8.631,20.703,14.805,41.592,19.16,62.216H423.492z"/> <path class="st0" d="M427.564,205.223H84.427c-8.356,0-15.114,6.759-15.114,15.124c0,8.356,6.759,15.124,15.114,15.124h343.137 c8.346,0,15.123-6.769,15.123-15.124C442.687,211.982,435.91,205.223,427.564,205.223z"/> <path class="st0" d="M388.862,250.86c-18.166,10.494-44.572,26.389-73.33,47.446c-3.211-3.06-6.405-6.049-9.526-8.87 c-18.503-16.658-35.109-29.21-48.237-36.652l-3.557-2.111l-3.645,2.111c-13.129,7.443-29.734,19.994-48.237,36.652 c-3.14,2.838-6.351,5.748-9.562,8.817c-28.704-21.014-55.066-36.865-73.206-47.358c-0.718-1.8-1.375-3.415-1.996-4.914H88.259 c2.492,5.455,21.599,49.594,37.788,113.947c1.002,3.894,2.005,7.868,2.998,11.842c0.638,2.794,1.277,5.589,1.916,8.462 c0.718,3.042,1.357,6.165,2.085,9.296c7.903,36.883,14.166,78.662,15.895,122.471l27.25-0.931 c-0.186-5.5-0.542-10.822-0.914-16.162c-0.089-0.08-0.089-0.08,0-0.08c-0.106-1.712-0.301-3.336-0.426-5.038 c7.797-21.883,18.317-42.471,30.824-61.596c0.009,0.009,0.026,0.027,0.045,0.036c14.157,14.006,27.719,29.121,40.057,45.566 c-8.116,11.372-15.585,23.329-22.343,35.774h15.762c4.702-8.205,9.634-16.25,15.017-23.967 c5.384,7.717,10.317,15.762,15.017,23.967h15.718c-6.742-12.445-14.192-24.402-22.308-35.774 c12.338-16.445,25.9-31.56,39.977-45.566c0.018-0.026,0.036-0.036,0.054-0.053c12.498,19.097,23.01,39.668,30.806,61.524 c-0.115,1.677-0.31,3.274-0.417,4.958c-0.372,5.411-0.728,10.911-0.914,16.411L359.396,512c1.818-43.81,8.081-85.43,15.896-122.294 v-0.088c0.728-3.22,1.455-6.343,2.084-9.385c0.638-2.874,1.366-5.668,2.005-8.462c0.904-4.062,1.907-7.948,2.9-11.842 c3.185-12.932,6.546-25.04,9.909-36.111c7.265-24.277,14.343-43.978,19.612-57.603c2.635-6.848,4.817-12.09,6.272-15.647 c0.816-1.774,1.366-3.123,1.72-3.965l0.284-0.621h-29.254C390.22,247.48,389.573,249.068,388.862,250.86z M211.972,298.751 c16.25-14.644,30.949-25.821,42.24-32.775c11.292,6.954,25.982,18.131,42.152,32.775c2.687,2.413,5.454,4.994,8.311,7.664 c-9.42,7.194-19.009,14.902-28.58,23.16c-7.345,6.351-14.671,13.057-21.91,20.038c-7.238-6.981-14.565-13.687-21.928-20.038 c-9.58-8.276-19.194-16.002-28.632-23.213C206.5,303.691,209.285,301.172,211.972,298.751z M131.316,282.625v-0.08 c-1.5-4.24-2.928-8.178-4.276-11.912c15.914,9.562,35.331,21.918,56.069,37.024c-9.208,9.066-18.592,18.948-28.065,29.609 c-1.73,1.986-3.469,4.116-5.216,6.138C143.601,319.898,137.081,299.3,131.316,282.625z M172.154,460.42 c-2.199-19.044-4.985-37.414-8.231-54.898c-1.118-5.907-2.28-11.664-3.495-17.359c2.466,1.969,4.932,3.868,7.398,5.917 c3.823,3.157,7.734,6.396,11.557,9.713c5.456,4.755,10.92,9.686,16.384,14.76C186.914,431.795,179.038,445.801,172.154,460.42z M203.449,407.509c-4.861-4.542-9.731-8.986-14.689-13.191c-8.338-7.282-16.765-14.068-25.023-20.463 c-2.617-2.076-5.207-3.929-7.806-5.863c-0.408-1.712-0.771-3.495-1.18-5.18c-0.283-1.197-0.585-2.297-0.869-3.468 c0.124-0.16,0.257-0.32,0.382-0.47c1.57-1.934,3.22-3.805,4.781-5.659c11.824-13.678,23.542-26.301,34.931-37.468 c9.509,7.238,19.186,14.982,28.828,23.319c7.344,6.334,14.654,13.022,21.848,19.976 C230.059,373.899,216.071,390.061,203.449,407.509z M254.212,462.46c-12.693-16.348-26.513-31.56-40.759-45.477 c-0.026-0.027-0.052-0.044-0.071-0.063c12.392-17.394,26.256-33.538,40.803-48.405c14.53,14.858,28.394,30.992,40.777,48.388 C280.708,430.9,266.897,446.032,254.212,462.46z M344.414,405.601c-3.246,17.466-6.023,35.818-8.223,54.774 c-6.874-14.591-14.734-28.571-23.568-41.788c5.473-5.1,10.946-10.023,16.419-14.795c3.823-3.317,7.646-6.556,11.469-9.633 c2.466-2.04,4.932-3.956,7.389-5.917C346.712,393.938,345.523,399.65,344.414,405.601z M353.586,362.892 c-0.409,1.641-0.763,3.415-1.172,5.091c-2.608,1.943-5.198,3.842-7.823,5.872c-8.25,6.466-16.676,13.261-25.023,20.463 c-4.958,4.214-9.819,8.658-14.688,13.111c-0.009,0-0.009,0.009-0.009,0.009c-12.614-17.422-26.584-33.557-41.158-48.396 c7.203-6.955,14.494-13.643,21.839-19.976c9.651-8.329,19.32-16.073,28.82-23.311c11.291,11.176,23.107,23.79,34.922,37.538 c1.738,1.997,3.442,4.081,5.163,6.138C354.171,360.602,353.87,361.712,353.586,362.892z M377.013,282.545v0.08 c-5.749,16.738-12.26,37.29-18.477,60.841c-1.739-2.005-3.46-4.08-5.251-6.04c-9.376-10.663-18.841-20.615-28.048-29.751 c20.738-15.115,40.156-27.463,56.077-37.042C379.939,274.366,378.512,278.314,377.013,282.545z"/> </g> </g>
</svg>