<svg width="41" height="40" viewBox="0 0 41 40" fill="none" xmlns="http://www.w3.org/2000/svg">
<path d="M27.322 24.6203C33.7823 24.6203 39.0209 19.4039 39.0209 12.9695C39.0209 6.53694 33.7823 1.32056 27.322 1.32056C20.8616 1.32056 15.6286 6.53694 15.6286 12.9695C15.6286 15.9498 16.9873 18.1174 16.9873 18.1174L2.84122 32.2042C2.2063 32.8373 1.31777 34.4811 2.84122 35.999L4.47389 37.6242C5.10881 38.1666 6.70446 38.9255 8.00948 37.6242L9.91611 35.7287C11.819 37.6242 13.9959 36.5413 14.8123 35.4566C16.171 33.5611 14.5401 31.6637 14.5401 31.6637L15.0844 31.1213C17.6944 33.724 19.9805 32.2061 20.7968 31.1213C22.1574 29.2258 20.7968 27.3284 20.7968 27.3284C20.2526 26.2455 19.1642 26.2455 20.5247 24.8905L22.1574 23.2653C23.4624 24.3482 26.1465 24.6203 27.3257 24.6203H27.322Z" stroke="white" stroke-width="2.21744" stroke-linejoin="round"/>
<path d="M31.4036 12.9735C31.4012 14.0532 30.97 15.0878 30.2049 15.8497C29.4399 16.6117 28.4036 17.0386 27.3238 17.0366C26.244 17.0386 25.2077 16.6117 24.4427 15.8497C23.6776 15.0878 23.2464 14.0532 23.244 12.9735C23.245 12.4387 23.3513 11.9093 23.5568 11.4156C23.7624 10.9219 24.0632 10.4735 24.442 10.096C24.8208 9.71853 25.2703 9.41937 25.7648 9.21561C26.2593 9.01185 26.789 8.90748 27.3238 8.90845C27.8586 8.90748 28.3883 9.01185 28.8828 9.21561C29.3773 9.41937 29.8268 9.71853 30.2056 10.096C30.5844 10.4735 30.8852 10.9219 31.0908 11.4156C31.2963 11.9093 31.4026 12.4387 31.4036 12.9735Z" stroke="white" stroke-width="2.21744"/>
</svg>
