<svg width="45" height="44" viewBox="0 0 45 44" fill="none" xmlns="http://www.w3.org/2000/svg">
<path d="M44.8104 0.0751953L41.7763 2.3193L33.141 8.82722L22.6964 7.14324L21.9963 7.03014L21.354 7.4251L10.7358 14.2113L2.21625 12.5848L0 12.1359V43.049H44.8104V0.0751953ZM41.0762 7.42331V17.073L33.1989 23.0764L22.9896 19.8216L22.112 19.5415L21.3559 19.9903L10.9692 26.667L3.7342 23.861V16.5146L10.8534 17.8611L11.6115 18.0299L12.2538 17.6349L22.8141 10.8487L33.3165 12.5309L34.1324 12.644L34.7747 12.1377L41.0762 7.42331ZM41.0762 21.6743V39.4584H3.7342V27.789L10.5024 30.3707L11.436 30.7064L12.2538 30.2019L22.7543 23.4696L33.0234 26.7783L33.9569 27.1158L34.7747 26.4982L41.0762 21.6743Z" fill="white"/>
</svg>
