<?xml version="1.0" standalone="no"?>
<!DOCTYPE svg PUBLIC "-//W3C//DTD SVG 20010904//EN"
 "http://www.w3.org/TR/2001/REC-SVG-20010904/DTD/svg10.dtd">
<svg version="1.0" xmlns="http://www.w3.org/2000/svg"
 width="512.000000pt" height="512.000000pt" viewBox="0 0 512.000000 512.000000"
 preserveAspectRatio="xMidYMid meet">
<metadata>
Created by potrace 1.16, written by Peter Selinger 2001-2019
</metadata>
<g transform="translate(0.000000,512.000000) scale(0.100000,-0.100000)"
fill="#fff" stroke="none">
<path d="M109 5097 c-24 -13 -57 -43 -74 -66 -27 -39 -30 -50 -30 -125 0 -73
3 -87 27 -124 15 -22 49 -54 75 -69 l48 -28 278 -3 277 -3 0 -70 0 -69 -37
-19 c-88 -45 -132 -126 -133 -241 l0 -75 -60 -44 c-71 -52 -128 -123 -169
-211 -31 -65 -52 -171 -43 -216 6 -33 46 -70 83 -78 54 -11 851 -7 891 4 52
15 78 52 78 109 0 143 -96 312 -227 402 l-43 30 0 63 c0 125 -57 227 -147 265
-33 13 -33 14 -33 82 l0 69 805 0 805 0 0 -70 c0 -68 -1 -71 -27 -81 -40 -15
-102 -77 -124 -124 -13 -28 -19 -63 -19 -121 l0 -81 -49 -32 c-111 -71 -200
-211 -223 -349 -11 -68 -11 -76 7 -110 14 -25 31 -41 55 -49 25 -8 157 -12
460 -12 303 0 435 4 460 12 24 8 41 24 55 49 18 34 18 42 7 109 -24 138 -114
280 -222 350 l-50 32 0 81 c0 58 -6 93 -19 121 -22 47 -84 109 -123 124 -27
10 -28 13 -28 81 l0 70 805 0 805 0 0 -69 c0 -68 0 -69 -32 -82 -91 -38 -148
-140 -148 -265 l0 -63 -43 -30 c-131 -90 -227 -259 -227 -403 0 -39 6 -54 29
-80 l29 -33 429 -3 c235 -2 447 0 470 3 46 7 88 42 95 79 9 45 -12 151 -43
216 -41 88 -98 159 -168 210 l-59 43 -4 86 c-6 119 -45 188 -130 232 l-38 19
0 69 0 70 278 3 277 3 48 28 c26 15 60 47 75 69 24 37 27 51 27 124 0 75 -3
86 -30 125 -16 23 -50 53 -74 66 l-44 23 -2407 0 -2407 0 -44 -23z m4810 -138
c50 -18 57 -83 11 -106 -37 -19 -4703 -19 -4740 0 -44 22 -39 88 7 105 41 15
4679 16 4722 1z m-4078 -579 c24 -13 49 -61 49 -95 l0 -25 -95 0 -95 0 0 36
c0 69 80 116 141 84z m1778 -16 c25 -21 31 -33 31 -65 l0 -39 -90 0 -90 0 0
39 c0 32 6 44 31 65 17 15 43 26 59 26 16 0 42 -11 59 -26z m1772 -3 c21 -22
29 -39 29 -65 l0 -36 -95 0 -95 0 0 25 c0 32 24 81 47 94 35 20 83 13 114 -18z
m-3438 -296 c67 -33 135 -102 171 -173 45 -89 72 -82 -333 -82 l-360 0 16 45
c33 97 128 192 227 227 78 28 203 20 279 -17z m1769 -3 c93 -45 164 -130 193
-229 l6 -23 -361 0 -361 0 7 23 c35 116 107 195 221 243 49 21 72 24 143 22
73 -3 95 -8 152 -36z m1714 23 c99 -29 203 -130 237 -230 l16 -45 -360 0
c-405 0 -378 -7 -333 81 47 94 136 170 234 200 43 13 154 10 206 -6z"/>
<path d="M1073 3236 c-152 -37 -300 -157 -366 -296 -35 -75 -57 -155 -57 -210
l0 -30 -271 0 c-259 0 -273 -1 -306 -21 -60 -37 -73 -79 -73 -231 0 -111 3
-139 19 -168 21 -41 74 -80 107 -80 58 0 54 82 54 -1034 0 -587 4 -1038 10
-1061 6 -25 22 -52 44 -72 l36 -33 140 0 c158 0 187 8 220 63 19 31 20 58 20
1080 l0 1047 50 0 c28 0 50 -2 50 -5 0 -26 96 -423 112 -463 29 -75 96 -145
175 -184 53 -26 80 -32 149 -36 94 -5 88 2 98 -99 l5 -53 -128 0 c-123 0 -130
-1 -189 -31 -184 -91 -219 -347 -58 -420 37 -17 70 -19 309 -19 l267 0 0 -264
0 -264 -127 -4 c-113 -3 -135 -6 -185 -30 -145 -67 -251 -235 -188 -298 30
-30 94 -27 117 6 63 89 84 112 128 136 l50 28 285 0 285 0 50 -28 c44 -24 65
-47 128 -136 23 -33 87 -36 117 -6 63 63 -43 231 -188 298 -50 24 -72 27 -184
30 l-128 4 0 264 0 264 260 0 c212 0 268 3 297 15 50 21 72 42 94 90 52 114
-15 270 -142 334 -59 30 -68 31 -185 31 l-124 0 6 63 c8 90 5 87 77 87 122 0
227 51 299 146 70 90 72 158 6 185 -45 19 -77 2 -120 -63 -28 -42 -50 -62 -89
-82 l-53 -26 -399 0 c-271 0 -412 4 -438 11 -49 15 -102 59 -123 103 -24 52
-206 866 -206 924 0 161 121 323 279 372 59 19 92 20 480 20 459 0 479 -2 573
-62 65 -41 115 -99 151 -177 49 -103 45 -176 -26 -483 -31 -136 -57 -261 -57
-277 0 -36 40 -71 80 -71 46 0 69 28 86 103 l16 67 168 0 168 0 22 -97 c85
-382 106 -435 195 -508 67 -56 129 -78 226 -83 l87 -4 6 -46 c3 -24 6 -57 6
-72 l0 -28 -137 -4 c-129 -3 -141 -5 -185 -30 -59 -36 -113 -98 -132 -156 -20
-57 -21 -144 -2 -180 21 -41 68 -81 107 -92 18 -6 152 -10 296 -10 l263 0 0
-264 0 -264 -127 -4 c-120 -3 -132 -5 -195 -35 -79 -37 -147 -101 -182 -172
-31 -61 -32 -80 -5 -115 15 -19 30 -26 54 -26 49 0 64 8 85 50 26 50 76 99
125 121 36 17 70 19 320 19 250 0 284 -2 320 -19 48 -22 100 -72 125 -122 21
-41 36 -49 85 -49 24 0 39 7 54 26 27 35 26 54 -5 115 -35 71 -103 135 -182
172 -62 30 -76 32 -189 35 l-123 4 0 264 0 264 253 0 c139 0 268 5 289 10 41
12 104 75 114 116 4 14 4 54 1 89 -5 74 -36 135 -92 183 -67 60 -89 66 -232
70 l-133 4 0 28 c0 15 3 48 6 72 l6 46 83 4 c68 4 95 10 148 36 80 40 148 112
176 187 16 42 111 437 111 460 0 3 23 5 50 5 l50 0 0 -1047 c0 -1022 1 -1049
20 -1080 33 -55 62 -63 221 -63 l141 0 38 38 c47 47 53 84 48 309 -4 188 -10
203 -83 203 -72 0 -75 -9 -75 -218 l0 -182 -75 0 -75 0 0 1020 0 1020 75 0 75
0 0 -703 c0 -684 1 -704 19 -721 28 -25 88 -23 115 3 21 22 21 23 24 718 2
536 5 699 15 705 6 4 24 8 38 8 36 0 88 38 110 80 16 29 19 57 19 168 0 152
-13 194 -73 231 -33 20 -47 21 -306 21 l-271 0 0 30 c0 55 -22 135 -57 210
-69 144 -225 267 -381 299 -72 15 -892 15 -964 0 -81 -17 -190 -73 -254 -131
-101 -93 -165 -216 -180 -350 l-7 -58 -67 0 -67 0 -7 58 c-15 134 -79 257
-180 350 -67 61 -176 116 -260 131 -88 16 -905 13 -973 -3z m2958 -166 c158
-49 279 -211 279 -372 0 -65 -183 -875 -209 -927 -23 -44 -69 -82 -120 -100
-47 -15 -815 -15 -862 0 -51 17 -97 56 -119 100 -24 47 -198 805 -207 901 -15
168 106 344 272 398 55 17 94 19 481 19 394 1 426 0 485 -19z m-3342 -619 c12
-49 21 -91 21 -95 0 -3 -124 -6 -275 -6 l-275 0 0 95 0 95 254 0 254 0 21 -89z
m1966 67 c26 -113 35 -154 35 -160 0 -5 -58 -8 -130 -8 -71 0 -130 3 -130 8 0
6 9 47 35 160 5 21 10 22 95 22 85 0 90 -1 95 -22z m2305 -73 l0 -95 -275 0
c-151 0 -275 3 -275 6 0 4 9 46 21 95 l21 89 254 0 254 0 0 -95z m-4470 -1275
l0 -1020 -75 0 -75 0 0 1020 0 1020 75 0 75 0 0 -1020z m1210 293 c0 -21 -3
-55 -6 -75 l-7 -38 -117 0 -117 0 -7 38 c-3 20 -6 54 -6 75 l0 37 130 0 130 0
0 -37z m1986 0 c-3 -21 -6 -55 -6 -75 l0 -38 -125 0 -125 0 0 38 c0 20 -3 54
-6 75 l-7 37 138 0 138 0 -7 -37z m-1591 -293 c34 -21 71 -89 62 -114 -6 -14
-72 -16 -592 -16 -658 0 -619 -5 -576 74 41 79 14 75 575 76 480 0 500 -1 531
-20z m1982 0 c37 -22 66 -71 61 -103 l-3 -22 -585 0 -585 0 -3 22 c-5 32 24
81 61 103 31 19 54 20 527 20 473 0 496 -1 527 -20z"/>
</g>
</svg>
