<!DOCTYPE svg PUBLIC "-//W3C//DTD SVG 1.1//EN" "http://www.w3.org/Graphics/SVG/1.1/DTD/svg11.dtd">
<!-- Uploaded to: SVG Repo, www.svgrepo.com, Transformed by: SVG Repo Mixer Tools -->
<svg fill="#ffffff" height="800px" width="800px" version="1.1" id="Layer_1" xmlns="http://www.w3.org/2000/svg" xmlns:xlink="http://www.w3.org/1999/xlink" viewBox="0 0 301.6 301.6" xml:space="preserve" stroke="#ffffff">
<g id="SVGRepo_bgCarrier" stroke-width="0"/>
<g id="SVGRepo_tracerCarrier" stroke-linecap="round" stroke-linejoin="round"/>
<g id="SVGRepo_iconCarrier"> <g> <g> <g> <path d="M257.27,44.005C228.8,15.6,191.035,0,150.8,0C110.305,0,72.345,15.665,44.005,44.005C15.6,72.345,0,110.305,0,150.8 c0,40.235,15.6,78,44.005,106.47C72.41,285.87,110.37,301.6,150.8,301.6c40.105,0,77.935-15.73,106.535-44.265 c28.535-28.6,44.265-66.43,44.265-106.535C301.6,110.37,285.805,72.475,257.27,44.005z M150.8,291.2 c-77.415,0-140.4-62.985-140.4-140.4S73.385,10.4,150.8,10.4s140.4,62.985,140.4,140.4S228.215,291.2,150.8,291.2z"/> <path d="M227.045,74.945c-20.215-20.475-47.19-31.72-75.92-31.72C91.585,43.225,43.16,91.65,43.16,151.19 c0,28.73,11.31,55.705,31.72,75.92c20.41,20.15,47.515,31.265,76.31,31.265c28.795,0,55.77-11.115,75.855-31.2 c20.15-20.15,31.265-47.125,31.265-75.92C258.31,122.395,247.195,95.29,227.045,74.945z M151.19,247.975 c-53.82,0-97.565-43.42-97.565-96.785c0-53.82,43.745-97.565,97.565-97.565c53.365,0,96.785,43.745,96.785,97.565 C247.975,204.555,204.555,247.975,151.19,247.975z"/> <path d="M172.185,107.965h-42.77v15.795H118.43v10.4h10.985v32.5H118.43v10.4h10.985v16.575h42.77V177.06h10.985v-10.4h-10.985 v-32.5h10.985v-10.4h-10.985V107.965z M161.785,183.235h-21.97v-6.175h21.97V183.235z M161.785,166.66h-21.97v-32.5h21.97V166.66 z M161.785,123.76h-21.97v-5.395h21.97V123.76z"/> </g> </g> </g> </g>
</svg>