<svg width="42" height="31" viewBox="0 0 42 31" fill="none" xmlns="http://www.w3.org/2000/svg">
<path d="M3.91804 0.96582H18.5668C19.3439 0.96582 20.0891 1.27449 20.6385 1.82393C21.1879 2.37336 21.4966 3.11856 21.4966 3.89558C21.4966 4.6726 21.1879 5.4178 20.6385 5.96723C20.0891 6.51667 19.3439 6.82534 18.5668 6.82534H3.91804C3.14102 6.82534 2.39583 6.51667 1.84639 5.96723C1.29695 5.4178 0.988281 4.6726 0.988281 3.89558C0.988281 3.11856 1.29695 2.37336 1.84639 1.82393C2.39583 1.27449 3.14102 0.96582 3.91804 0.96582ZM3.91804 12.6849H39.0752C39.8522 12.6849 40.5974 12.9935 41.1468 13.543C41.6963 14.0924 42.0049 14.8376 42.0049 15.6146C42.0049 16.3916 41.6963 17.1368 41.1468 17.6863C40.5974 18.2357 39.8522 18.5444 39.0752 18.5444H3.91804C3.14102 18.5444 2.39583 18.2357 1.84639 17.6863C1.29695 17.1368 0.988281 16.3916 0.988281 15.6146C0.988281 14.8376 1.29695 14.0924 1.84639 13.543C2.39583 12.9935 3.14102 12.6849 3.91804 12.6849Z" fill="white"/>
<path d="M19.3969 24.4042H4.74814C3.97112 24.4042 3.22592 24.7129 2.67649 25.2623C2.12705 25.8117 1.81838 26.5569 1.81838 27.334C1.81838 28.111 2.12705 28.8562 2.67649 29.4056C3.22592 29.955 3.97112 30.2637 4.74814 30.2637H19.3969C20.174 30.2637 20.9192 29.955 21.4686 29.4056C22.018 28.8562 22.3267 28.111 22.3267 27.334C22.3267 26.5569 22.018 25.8117 21.4686 25.2623C20.9192 24.7129 20.174 24.4042 19.3969 24.4042Z" fill="white"/>
</svg>
