<svg width="28" height="27" viewBox="0 0 28 27" fill="none" xmlns="http://www.w3.org/2000/svg">
<path d="M18.915 16.8649C23.5912 16.8649 27.383 13.0891 27.383 8.43177C27.383 3.77574 23.5912 0 18.915 0C14.2389 0 10.4511 3.77574 10.4511 8.43177C10.4511 10.589 11.4346 12.1579 11.4346 12.1579L1.19531 22.3543C0.735732 22.8125 0.092597 24.0023 1.19531 25.101L2.37707 26.2774C2.83664 26.67 3.99161 27.2194 4.93621 26.2774L6.31627 24.9054C7.69365 26.2774 9.26934 25.4936 9.86022 24.7085C10.8437 23.3364 9.66326 21.9631 9.66326 21.9631L10.0572 21.5705C11.9464 23.4543 13.6011 22.3557 14.192 21.5705C15.1768 20.1985 14.192 18.8251 14.192 18.8251C13.7981 18.0413 13.0102 18.0413 13.995 17.0605L15.1768 15.8841C16.1214 16.6679 18.0642 16.8649 18.9177 16.8649H18.#b48822" fill="#fff"/>
<path d="M23.5557 8.4332C23.5524 9.88556 22.9724 11.2772 21.9434 12.302C20.9143 13.3269 19.5203 13.9011 18.068 13.8985C16.6156 13.9011 15.2217 13.3269 14.1926 12.302C13.1635 11.2772 12.5836 9.88556 12.5803 8.4332C12.5816 7.71386 12.7246 7.00181 13.0011 6.33772C13.2776 5.67363 13.6821 5.07051 14.1917 4.56278C14.7013 4.05505 15.3059 3.65266 15.971 3.37859C16.6361 3.10451 17.3486 2.96412 18.068 2.96543C18.7873 2.96412 19.4999 3.10451 20.165 3.37859C20.8301 3.65266 21.4347 4.05505 21.9442 4.56278C22.4538 5.07051 22.8584 5.67363 23.1349 6.33772C23.4114 7.00181 23.5544 7.71386 23.5557 8.4332Z" fill="#a27d27" stroke="#fff" strokeWidth="3.17538"/>
</svg>
