<svg width="27" height="28" viewBox="0 0 27 28" fill="none" xmlns="http://www.w3.org/2000/svg">
<path d="M24.6173 5.22229H17.5274V6.99476H24.6173V25.6057H17.5274V27.3782H26.3897V6.99476C26.3897 6.52467 26.203 6.07384 25.8706 5.74144C25.5382 5.40903 25.0874 5.22229 24.6173 5.22229Z" fill="#fff"/>
<path d="M14.7622 0.790585H2.5676C2.0693 0.790585 1.59142 0.988531 1.23907 1.34088C0.886721 1.69323 0.688774 2.17111 0.688774 2.66941V27.3777H16.641V2.66941C16.641 2.17111 16.4431 1.69323 16.0907 1.34088C15.7384 0.988531 15.2605 0.790585 14.7622 0.790585ZM14.8686 25.6052H12.2099V22.9465H5.11996V25.6052H2.46125V2.66941C2.46125 2.65544 2.464 2.64161 2.46934 2.62871C2.47469 2.61581 2.48252 2.60408 2.4924 2.59421C2.50227 2.58433 2.514 2.5765 2.5269 2.57115C2.5398 2.56581 2.55363 2.56306 2.5676 2.56306H14.7622C14.7762 2.56306 14.79 2.56581 14.8029 2.57115C14.8158 2.5765 14.8275 2.58433 14.8374 2.59421C14.8473 2.60408 14.8551 2.61581 14.8605 2.62871C14.8658 2.64161 14.8686 2.65544 14.8686 2.66941V25.6052Z" fill="#fff"/>
<path d="M4.2338 5.22229H6.00628V6.99476H4.2338V5.22229Z" fill="#fff"/>
<path d="M7.77876 5.22229H9.55124V6.99476H7.77876V5.22229Z" fill="#fff"/>
<path d="M11.3237 5.22229H13.0962V6.99476H11.3237V5.22229Z" fill="#fff"/>
<path d="M4.2338 9.65306H6.00628V11.4255H4.2338V9.65306Z" fill="#fff"/>
<path d="M7.77876 9.65306H9.55124V11.4255H7.77876V9.65306Z" fill="#fff"/>
<path d="M11.3237 9.65306H13.0962V11.4255H11.3237V9.65306Z" fill="#fff"/>
<path d="M4.2338 14.0838H6.00628V15.8563H4.2338V14.0838Z" fill="#fff"/>
<path d="M7.77876 14.0838H9.55124V15.8563H7.77876V14.0838Z" fill="#fff"/>
<path d="M11.3237 14.0838H13.0962V15.8563H11.3237V14.0838Z" fill="#fff"/>
<path d="M4.2338 18.5155H6.00628V20.288H4.2338V18.5155Z" fill="#fff"/>
<path d="M7.77876 18.5155H9.55124V20.288H7.77876V18.5155Z" fill="#fff"/>
<path d="M11.3237 18.5155H13.0962V20.288H11.3237V18.5155Z" fill="#fff"/>
<path d="M17.5274 9.65306H19.2998V11.4255H17.5274V9.65306Z" fill="#fff"/>
<path d="M21.0723 9.65306H22.8448V11.4255H21.0723V9.65306Z" fill="#fff"/>
<path d="M17.5274 14.0838H19.2998V15.8563H17.5274V14.0838Z" fill="#fff"/>
<path d="M21.0723 14.0838H22.8448V15.8563H21.0723V14.0838Z" fill="#fff"/>
<path d="M17.5274 18.5155H19.2998V20.288H17.5274V18.5155Z" fill="#fff"/>
<path d="M21.0723 18.5155H22.8448V20.288H21.0723V18.5155Z" fill="#fff"/>
</svg>
