<svg width="19" height="28" viewBox="0 0 19 28" fill="none" xmlns="http://www.w3.org/2000/svg">
<path d="M19 6.80114V8.82955C19 9.01515 18.9365 9.16761 18.8096 9.28693C18.6826 9.40625 18.5204 9.46591 18.3229 9.46591H14.7684C14.4439 11.375 13.5342 12.9261 12.039 14.1193C10.5438 15.3125 8.59725 16.0417 6.19933 16.3068C8.55494 18.6667 11.7921 22.2197 15.9109 26.9659C16.1084 27.178 16.1366 27.4034 15.9955 27.642C15.8827 27.8807 15.6782 28 15.382 28H11.2561C11.0304 28 10.8541 27.9205 10.7272 27.7614C6.41091 22.8958 2.89866 19.1108 0.190423 16.4062C0.0634744 16.2869 0 16.1411 0 15.9688V13.4432C0 13.2708 0.0670007 13.1217 0.201002 12.9957C0.335004 12.8698 0.49369 12.8068 0.67706 12.8068H3.04677C4.90869 12.8068 6.40739 12.5218 7.54287 11.9517C8.67836 11.3816 9.40126 10.553 9.71158 9.46591H0.67706C0.479584 9.46591 0.317372 9.40625 0.190423 9.28693C0.0634744 9.16761 0 9.01515 0 8.82955V6.80114C0 6.61553 0.0634744 6.46307 0.190423 6.34375C0.317372 6.22443 0.479584 6.16477 0.67706 6.16477H9.41537C8.61136 4.66667 6.72123 3.91761 3.74499 3.91761H0.67706C0.49369 3.91761 0.335004 3.85464 0.201002 3.72869C0.0670007 3.60275 0 3.4536 0 3.28125V0.636364C0 0.450758 0.0634744 0.298295 0.190423 0.178977C0.317372 0.0596591 0.479584 0 0.67706 0H18.2806C18.4781 0 18.6403 0.0596591 18.7673 0.178977C18.8942 0.298295 18.9577 0.450758 18.9577 0.636364V2.66477C18.9577 2.85038 18.8942 3.00284 18.7673 3.12216C18.6403 3.24148 18.4781 3.30114 18.2806 3.30114H13.3508C14.0137 4.10985 14.4651 5.06439 14.7049 6.16477H18.3229C18.5204 6.16477 18.6826 6.22443 18.8096 6.34375C18.9365 6.46307 19 6.61553 19 6.80114Z" fill="#fff"/>
</svg>
