<!DOCTYPE svg PUBLIC "-//W3C//DTD SVG 1.1//EN" "http://www.w3.org/Graphics/SVG/1.1/DTD/svg11.dtd">
<!-- Uploaded to: SVG Repo, www.svgrepo.com, Transformed by: SVG Repo Mixer Tools -->
<svg fill="#ffffff" version="1.1" id="Capa_1" xmlns="http://www.w3.org/2000/svg" xmlns:xlink="http://www.w3.org/1999/xlink" width="800px" height="800px" viewBox="0 0 554.366 554.366" xml:space="preserve" stroke="#ffffff">
<g id="SVGRepo_bgCarrier" stroke-width="0"/>
<g id="SVGRepo_tracerCarrier" stroke-linecap="round" stroke-linejoin="round"/>
<g id="SVGRepo_iconCarrier"> <g> <g> <path d="M35.62,174.851c0.712,0,1.435-0.144,2.128-0.44l74.224-31.9c2.74-1.176,4.006-4.351,2.826-7.09 c-1.176-2.74-4.356-4.002-7.091-2.826l-74.224,31.901c-2.74,1.176-4.006,4.351-2.826,7.09 C31.537,173.627,33.531,174.851,35.62,174.851z"/> <path d="M123.691,202.358l-83.744,7.176c-2.969,0.253-5.173,2.869-4.915,5.838c0.239,2.812,2.596,4.935,5.374,4.935 c0.153,0,0.311-0.005,0.469-0.019l83.744-7.177c2.969-0.253,5.173-2.869,4.92-5.838 C129.275,204.304,126.636,202.104,123.691,202.358z"/> <path d="M39.942,275.109h83.122c2.983,0,5.398-2.415,5.398-5.398c0-2.984-2.415-5.398-5.398-5.398H39.942 c-2.983,0-5.398,2.415-5.398,5.398C34.544,272.695,36.959,275.109,39.942,275.109z"/> <path d="M123.758,336.759c2.663,0,4.982-1.971,5.346-4.682c0.396-2.953-1.678-5.67-4.633-6.066l-83.347-11.164 c-2.964-0.406-5.67,1.678-6.067,4.633s1.678,5.67,4.633,6.066l83.347,11.164C123.275,336.739,123.519,336.759,123.758,336.759z"/> <path d="M33.431,365.001l78.958,35.096c0.712,0.314,1.458,0.469,2.189,0.469c2.07,0,4.041-1.195,4.935-3.209 c1.209-2.725-0.019-5.914-2.74-7.125l-78.958-35.094c-2.721-1.209-5.915,0.014-7.124,2.74 C29.477,360.603,30.705,363.792,33.431,365.001z"/> <path d="M0,125.059v276.352c0,4.174,3.385,7.555,7.554,7.555c4.174,0,7.559-3.387,7.559-7.555V125.059 c0-4.174-3.385-7.554-7.559-7.554C3.385,117.505,0,120.885,0,125.059z"/> <circle cx="295.887" cy="258.179" r="33.177"/> <circle cx="486.258" cy="258.179" r="33.177"/> <path d="M167.234,426.556c3.371,4.828,8.568,7.621,14.009,8.104c4.317,0.383,8.788-0.697,12.623-3.371l39.756-27.76 c18.833,24.008,29.753,33.277,60.333,33.277c1.182,0.154,13.9-0.07,15.09,0c23.16-0.096,27.875-14.615,28.09-38.139 c0.148-16.301,0.631-55.879,0-75.305c-0.598-21.297-18.02-21.033-25.848-21.291c-1.189,0.07-23.164-0.059-24.355,0 c-2.945,0-7.592,0.258-12.134,3.432l-30.538,21.498c-4.542,3.131-9.094,6.324-13.412,9.438l-21.826,15.367 c-8.415,5.875-10.581,17.266-5.164,25.852l-31.891,22.271C163.304,405.972,161.186,417.897,167.234,426.556z"/> <path d="M554.232,408.966l-27.506-91.131l-0.043,0.027c-3.236-15.701-18.117-15.566-25.197-15.801 c-1.191,0.072-23.166-0.059-24.355,0c-2.945,0-7.594,0.258-12.135,3.432l-30.539,21.498c-4.541,3.131-9.094,6.324-13.41,9.438 l-21.826,15.367c-8.416,5.875-10.582,17.266-5.164,25.852l-31.891,22.271c-8.664,6.049-10.777,17.969-4.729,26.627 c3.369,4.828,8.566,7.621,14.008,8.104c4.318,0.383,8.789-0.697,12.623-3.371l39.756-27.76 c18.834,24.008,29.754,33.277,60.334,33.277c1.182,0.154,13.9-0.07,15.09,0c17.061-0.07,24.098-7.988,26.713-21.549 c10.365,0,18.15,0,20.508,0C556.025,415.253,554.232,408.966,554.232,408.966z"/> </g> </g> </g>
</svg>