<!DOCTYPE svg PUBLIC "-//W3C//DTD SVG 1.1//EN" "http://www.w3.org/Graphics/SVG/1.1/DTD/svg11.dtd">
<!-- Uploaded to: SVG Repo, www.svgrepo.com, Transformed by: SVG Repo Mixer Tools -->
<svg fill="#ffffff" version="1.1" id="Capa_1" xmlns="http://www.w3.org/2000/svg" xmlns:xlink="http://www.w3.org/1999/xlink" width="800px" height="800px" viewBox="0 0 200.954 200.954" xml:space="preserve" stroke="#ffffff">
<g id="SVGRepo_bgCarrier" stroke-width="0"/>
<g id="SVGRepo_tracerCarrier" stroke-linecap="round" stroke-linejoin="round"/>
<g id="SVGRepo_iconCarrier"> <g> <g> <path d="M99,155.104c1.411,0,5.2-1.438,9.301-1.438c5.089,0,10.501,1.438,10.501,1.438s-8.923-7.584-12.088-7.584 c-3.16,0-7.714,2.949-7.714,2.949s-3.621-2.764-6.226-2.949c-2.607-0.186-13.578,7.584-13.578,7.584s6.527-1.68,12.254-1.68 C94.695,153.424,97.855,155.109,99,155.104z"/> <path d="M99,165.396c12.365,0,19.802-10.292,19.802-10.292s-4.403,2.659-10.86,3.012c-2.684,0.141-5.72-0.363-8.942-0.363 c-2.658,0-5.364,0.711-7.673,0.607c-7.239-0.333-12.13-3.256-12.13-3.256S86.631,165.391,99,165.396z"/> <path d="M34.393,83.645c0.409-13.309,4.856-25.589,12.154-35.721c15.329-4.684,35.455-5.727,55.049-1.037 c-11.244,2.433-21.74,7.888-30.519,16.159c-8.523,8.026-14.703,18.06-17.703,28.017l-0.038,0.096 c1.583,0.887,3.456,1.882,5.507,2.834C66.801,79.817,81.792,70.241,99,70.241c8.526,0,16.492,2.39,23.347,6.478 c-0.684,2.942-0.814,6.035-0.257,9.006l0.582,2.851l-0.462,0.936c-1.63,3.956-1.63,8.287-0.345,12.355 c0.574-0.662,1.527-1.204,2.709-1.713c-0.744-2.927-0.701-6.205,0.615-9.414c2.624-6.4,17.442,0.717,17.442,0.717 s-14.062-12.184-17.379-6.328c-1.904-10.151,5.241-21.891,16.208-19.475c-8.679,7.984,4.18,22.72,4.18,22.72 s-4.781-16.068-1.233-20.042c5.257-5.907,17.3,3.16,17.379,11.872c-4.155-0.312-8.111,5.117-10.282,8.726l0.103-0.063 c4.478-2.458,8.415-3.445,11.58-4.235c1.171-0.291,2.22-0.548,3.139-0.861c1.124-0.381,2.446-1.459,3.912-3.079 C167.688,43.582,136.744,14.134,99,14.134c-36.608,0-66.838,27.669-70.973,63.191C30.513,80.792,32.661,82.944,34.393,83.645z M163.568,83.582l0.034,0.375l-0.253-0.391L163.568,83.582z M126.539,68c-0.564,0.684-0.98,1.488-1.462,2.246 c-7.639-4.011-16.534-5.995-26.078-5.995c-8.967,0-17.394,1.718-24.713,5.256c0.497-0.495,0.948-1.021,1.458-1.502 c11.689-11.004,26.7-16.58,42.306-15.677c6.2,2.67,12.129,6.106,17.667,10.224C132.225,63.243,129.009,65.013,126.539,68z M99,20.944c30.784,0,56.557,21.634,63.042,50.491c-3.147-4.685-8.324-8.215-13.32-8.215l-1.384,0.156 C121.062,38.9,82.637,33.642,54.194,39.092C65.828,27.879,81.605,20.944,99,20.944z"/> <path d="M135.551,112.34h-0.011c-1.894,0-4.099-0.394-6.228-1.033c1.177,0.732,2.432,1.373,3.853,1.805l3.926,0.777 c0.112,1.074,0.364,2.092,0.803,3.009c1.074,2.332,3.135,3.88,5.537,4.903c0.416-0.897,0.826-1.85,1.286-2.905 c-1.789-0.761-3.213-1.872-3.896-3.354c-0.531-1.148-0.598-2.632-0.481-4.202C138.632,111.869,136.984,112.312,135.551,112.34z"/> <path d="M132.454,160.608c-0.783,0-1.85-0.208-2.909-0.975c-9.539,13.227-21.571,22.677-30.545,22.677 c-8.764,0-20.464-9.007-29.9-21.757l-0.604,0.055c-1.871,0-3.625-1.007-5.403-2.834c1.699,2.951,3.083,5.669,3.939,8.098 C78.115,178.775,91.356,186.82,99,186.82c8.876,0,25.269-10.846,37.093-27.547C134.905,160.127,133.701,160.608,132.454,160.608z"/> <path d="M47.537,131.608c2.405-1.326,4.977,3.638,7.823,8.765c4.55,8.213,10.993,20.815,14.873,16.58 c3.769-4.104-8.752-20.115-14.376-32.066c-2.128-4.525-5.727-11.907-4.918-16.394c0.812-4.493,10.136,0.952,14.52,1.045 c4.392,0.099,11.789-2.62,11.676-5.5c-0.063-1.564-7.98-3.041-15.408-5.799c-6.222-2.295-11.977-5.942-13.741-6.911 c-5.893-3.245-10.954-3.768-14.265-4.903c-2.86-0.977-5.855-4.219-9.068-8.988L0,91.675c3.304,5.92,5.859,11.63,6.544,16.046 c2.212,14.31,8.304,20.969,10.276,27.063c2.246,6.973,11.885,29.834,17.073,30.572c5.901,0.844-10.144-23.513-5.921-25.115 c1.483-0.569,4.289,6.127,7.405,12.82c4.242,9.121,10.228,22.517,13.464,21.062c8.334-3.766-17.677-35.881-12.117-36.734 c1.982-0.301,7.266,8.017,11.79,16.41c5.113,9.469,12.47,22.206,15.997,18.387c2.986-3.229-4.954-14.709-10.244-23.611 C49.579,140.663,45.56,132.69,47.537,131.608z"/> <path d="M176.298,77.437c-3.209,4.76-6.206,8.005-9.063,8.988c-3.314,1.135-8.372,1.658-14.27,4.903 c-1.764,0.974-7.521,4.616-13.736,6.911c-7.432,2.751-15.355,4.235-15.421,5.799c-0.104,2.88,7.289,5.599,11.69,5.5 c4.376-0.093,13.7-5.538,14.512-1.045c0.813,4.486-2.792,11.874-4.916,16.394c-5.625,11.941-18.145,27.962-14.375,32.066 c3.88,4.235,10.321-8.367,14.87-16.58c2.849-5.133,5.421-10.091,7.825-8.765c1.979,1.082-2.036,9.055-6.723,16.962 c-5.296,8.908-13.229,20.388-10.241,23.612c3.522,3.812,10.884-8.921,15.993-18.382c4.524-8.394,9.8-16.716,11.794-16.416 c5.552,0.854-20.456,32.964-12.126,36.729c3.237,1.455,9.226-11.93,13.465-21.056c3.124-6.688,5.926-13.385,7.411-12.826 c4.217,1.607-11.816,25.958-5.929,25.121c5.188-0.738,14.829-23.602,17.073-30.572c1.976-6.095,8.065-12.761,10.276-27.063 c0.691-4.417,3.241-10.127,6.546-16.05L176.298,77.437z"/> <path d="M114.847,114.359c-3.548,1.707-4.467,5.526-4.687,7.037c-0.216,1.51,3,0.562,3.104-0.4 c0.071-0.673-0.181-1.713,1.472-3.267l0.056,0.969c1.266,2.194,4.076,2.95,6.261,1.681c2.194-1.265,2.942-4.051,1.695-6.238 c3.403-0.536,7.042-0.607,7.042-0.607S119.605,112.05,114.847,114.359z"/> <path d="M128.454,119.503c0,0-3.223,1.488-6.058,2.08c-2.55,0.524-8.908,0.814-8.908,0.814s5.439,0.788,8.316,0.788 C124.685,123.181,128.454,119.503,128.454,119.503z"/> <path d="M76.943,120.379c2.191,1.27,5.005,0.514,6.266-1.681l0.049-0.969c1.653,1.554,1.401,2.594,1.476,3.267 c0.107,0.958,3.322,1.904,3.103,0.4c-0.217-1.511-1.136-5.33-4.684-7.037c-4.764-2.31-14.938-0.826-14.938-0.826 s3.635,0.076,7.039,0.607C74.002,116.328,74.757,119.119,76.943,120.379z"/> <path d="M84.509,122.397c0,0-6.357-0.29-8.909-0.814c-2.837-0.592-6.058-2.08-6.058-2.08s3.77,3.678,6.651,3.678 C79.072,123.181,84.509,122.397,84.509,122.397z"/> </g> </g> </g>
</svg>