<svg width="58" height="57" viewBox="0 0 58 57" fill="none" xmlns="http://www.w3.org/2000/svg">
<path d="M2.26132 56.6437C1.81361 56.6437 1.38424 56.4659 1.06767 56.1493C0.751093 55.8327 0.573242 55.4034 0.573242 54.9557C0.573242 54.5079 0.751093 54.0786 1.06767 53.762C1.38424 53.4454 1.81361 53.2676 2.26132 53.2676H56.2797C56.7274 53.2676 57.1568 53.4454 57.4734 53.762C57.7899 54.0786 57.9678 54.5079 57.9678 54.9557C57.9678 55.4034 57.7899 55.8327 57.4734 56.1493C57.1568 56.4659 56.7274 56.6437 56.2797 56.6437H2.26132Z" fill="#a27d27"/>
<path d="M15.766 53.2678C15.766 53.7155 15.5882 54.1449 15.2716 54.4615C14.955 54.778 14.5257 54.9559 14.078 54.9559C13.6303 54.9559 13.2009 54.778 12.8843 54.4615C12.5677 54.1449 12.3899 53.7155 12.3899 53.2678V10.4177C12.3899 5.23196 16.1104 0.9375 20.8303 0.9375H37.711C42.4309 0.9375 46.1514 5.23196 46.1514 10.4177V53.2678C46.1514 53.7155 45.9735 54.1449 45.657 54.4615C45.3404 54.778 44.911 54.9559 44.4633 54.9559C44.0156 54.9559 43.5862 54.778 43.2697 54.4615C42.9531 54.1449 42.7752 53.7155 42.7752 53.2678V10.4177C42.7752 6.99769 40.4491 4.31365 37.711 4.31365H20.8303C18.0922 4.31365 15.766 6.99769 15.766 10.4177V53.2678Z" fill="#a27d27"/>
<path d="M22.5182 9.37793H25.8943C26.342 9.37793 26.7714 9.55578 27.088 9.87236C27.4045 10.1889 27.5824 10.6183 27.5824 11.066V14.4422C27.5824 14.8899 27.4045 15.3192 27.088 15.6358C26.7714 15.9524 26.342 16.1302 25.8943 16.1302H22.5182C22.0704 16.1302 21.6411 15.9524 21.3245 15.6358C21.0079 15.3192 20.8301 14.8899 20.8301 14.4422V11.066C20.8301 10.6183 21.0079 10.1889 21.3245 9.87236C21.6411 9.55578 22.0704 9.37793 22.5182 9.37793ZM32.6466 9.37793H36.0227C36.4705 9.37793 36.8998 9.55578 37.2164 9.87236C37.533 10.1889 37.7108 10.6183 37.7108 11.066V14.4422C37.7108 14.8899 37.533 15.3192 37.2164 15.6358C36.8998 15.9524 36.4705 16.1302 36.0227 16.1302H32.6466C32.1989 16.1302 31.7695 15.9524 31.4529 15.6358C31.1364 15.3192 30.9585 14.8899 30.9585 14.4422V11.066C30.9585 10.6183 31.1364 10.1889 31.4529 9.87236C31.7695 9.55578 32.1989 9.37793 32.6466 9.37793ZM32.6466 19.5064H36.0227C36.4705 19.5064 36.8998 19.6842 37.2164 20.0008C37.533 20.3174 37.7108 20.7467 37.7108 21.1945V24.5706C37.7108 25.0183 37.533 25.4477 37.2164 25.7642C36.8998 26.0808 36.4705 26.2587 36.0227 26.2587H32.6466C32.1989 26.2587 31.7695 26.0808 31.4529 25.7642C31.1364 25.4477 30.9585 25.0183 30.9585 24.5706V21.1945C30.9585 20.7467 31.1364 20.3174 31.4529 20.0008C31.7695 19.6842 32.1989 19.5064 32.6466 19.5064ZM32.6466 29.6348H36.0227C36.4705 29.6348 36.8998 29.8127 37.2164 30.1292C37.533 30.4458 37.7108 30.8752 37.7108 31.3229V34.699C37.7108 35.1468 37.533 35.5761 37.2164 35.8927C36.8998 36.2093 36.4705 36.3871 36.0227 36.3871H32.6466C32.1989 36.3871 31.7695 36.2093 31.4529 35.8927C31.1364 35.5761 30.9585 35.1468 30.9585 34.699V31.3229C30.9585 30.8752 31.1364 30.4458 31.4529 30.1292C31.7695 29.8127 32.1989 29.6348 32.6466 29.6348ZM32.6466 39.7633H36.0227C36.4705 39.7633 36.8998 39.9411 37.2164 40.2577C37.533 40.5743 37.7108 41.0036 37.7108 41.4513V44.8275C37.7108 45.2752 37.533 45.7046 37.2164 46.0211C36.8998 46.3377 36.4705 46.5156 36.0227 46.5156H32.6466C32.1989 46.5156 31.7695 46.3377 31.4529 46.0211C31.1364 45.7046 30.9585 45.2752 30.9585 44.8275V41.4513C30.9585 41.0036 31.1364 40.5743 31.4529 40.2577C31.7695 39.9411 32.1989 39.7633 32.6466 39.7633ZM22.5182 19.5064H25.8943C26.342 19.5064 26.7714 19.6842 27.088 20.0008C27.4045 20.3174 27.5824 20.7467 27.5824 21.1945V24.5706C27.5824 25.0183 27.4045 25.4477 27.088 25.7642C26.7714 26.0808 26.342 26.2587 25.8943 26.2587H22.5182C22.0704 26.2587 21.6411 26.0808 21.3245 25.7642C21.0079 25.4477 20.8301 25.0183 20.8301 24.5706V21.1945C20.8301 20.7467 21.0079 20.3174 21.3245 20.0008C21.6411 19.6842 22.0704 19.5064 22.5182 19.5064ZM22.5182 39.7633H25.8943C26.342 39.7633 26.7714 39.9411 27.088 40.2577C27.4045 40.5743 27.5824 41.0036 27.5824 41.4513V44.8275C27.5824 45.2752 27.4045 45.7046 27.088 46.0211C26.7714 46.3377 26.342 46.5156 25.8943 46.5156H22.5182C22.0704 46.5156 21.6411 46.3377 21.3245 46.0211C21.0079 45.7046 20.8301 45.2752 20.8301 44.8275V41.4513C20.8301 41.0036 21.0079 40.5743 21.3245 40.2577C21.6411 39.9411 22.0704 39.7633 22.5182 39.7633ZM22.5182 29.6348H25.8943C26.342 29.6348 26.7714 29.8127 27.088 30.1292C27.4045 30.4458 27.5824 30.8752 27.5824 31.3229V34.699C27.5824 35.1468 27.4045 35.5761 27.088 35.8927C26.7714 36.2093 26.342 36.3871 25.8943 36.3871H22.5182C22.0704 36.3871 21.6411 36.2093 21.3245 35.8927C21.0079 35.5761 20.8301 35.1468 20.8301 34.699V31.3229C20.8301 30.8752 21.0079 30.4458 21.3245 30.1292C21.6411 29.8127 22.0704 29.6348 22.5182 29.6348Z" fill="#a27d27"/>
</svg>
