<svg width="59" height="62" viewBox="0 0 59 62" fill="none" xmlns="http://www.w3.org/2000/svg">
<path d="M0.167969 61.7555H56.1371L39.3464 39.3678L25.3541 33.7709L16.9587 22.5771H0.167969V61.7555ZM5.76488 56.1586V51.681L11.3618 53.5L36.6179 45.1047L44.9433 56.1586H5.76488ZM11.3618 47.6233L5.76488 45.7343V40.4872L11.3618 42.3062L22.4157 38.6682L29.132 41.6766L11.3618 47.6233ZM46.3425 39.3678L58.9355 33.7709V22.5771L46.3425 19.7786L39.3464 25.3756V33.7709L46.3425 39.3678ZM11.3618 36.4295L5.76488 34.5405V28.174H14.1602L18.7077 33.9808L11.3618 36.4295ZM47.182 32.8614L44.9433 31.1124V28.0341L47.7417 25.7953L53.3386 27.0546V30.1329L47.182 32.8614ZM28.1525 22.5771L42.1448 16.9802V2.98791L28.1525 0.189453L19.7572 5.78637V16.9802L28.1525 22.5771ZM28.7822 16.2806L25.3541 13.9718V8.79471L29.3419 6.13617L36.5479 7.60536V13.2023L28.7822 16.2806Z" fill="#a27d27"/>
</svg>
