<svg width="57" height="54" viewBox="0 0 57 54" fill="none" xmlns="http://www.w3.org/2000/svg">
<path fill-rule="evenodd" clipRule="evenodd" d="M39.7088 4.13814V8.54848L44.9281 12.724V4.13814H39.7088ZM48.8426 15.8556V3.48572C48.8426 1.68505 47.3812 0.223633 45.5805 0.223633H39.0564C37.2557 0.223633 35.7943 1.68505 35.7943 3.48572V5.41688L34.7321 4.56612C32.9967 3.17742 30.8403 2.42083 28.6177 2.42083C26.395 2.42083 24.2386 3.17742 22.5032 4.56612L1.29965 21.529C0.894061 21.8532 0.633898 22.3253 0.576393 22.8414C0.518887 23.3575 0.66875 23.8753 0.993011 24.2809C1.31727 24.6865 1.78937 24.9466 2.30545 25.0041C2.82153 25.0616 3.33932 24.9118 3.74491 24.5875L5.78306 22.9539V49.8074H2.52097C2.00188 49.8074 1.50404 50.0136 1.13699 50.3806C0.769931 50.7477 0.563721 51.2455 0.563721 51.7646C0.563721 52.2837 0.769931 52.7816 1.13699 53.1486C1.50404 53.5157 2.00188 53.7219 2.52097 53.7219H54.7144C55.2335 53.7219 55.7313 53.5157 56.0984 53.1486C56.4654 52.7816 56.6716 52.2837 56.6716 51.7646C56.6716 51.2455 56.4654 50.7477 56.0984 50.3806C55.7313 50.0136 55.2335 49.8074 54.7144 49.8074H51.4523V22.9539L53.493 24.5875C53.8993 24.9041 54.414 25.0478 54.9255 24.9875C55.437 24.9271 55.9041 24.6676 56.2255 24.2651C56.5469 23.8626 56.6968 23.3497 56.6425 22.8375C56.5882 22.3253 56.3343 21.8552 55.9357 21.529L48.8426 15.8556ZM47.5378 19.8223L32.2869 7.62205C31.2455 6.78857 29.9515 6.33445 28.6177 6.33445C27.2839 6.33445 25.9898 6.78857 24.9485 7.62205L9.69757 19.8223V49.8074H18.8314V38.5858C18.8314 36.853 18.8314 35.3576 18.9932 34.1598C19.1655 32.8758 19.5543 31.6467 20.5512 30.6498C21.5481 29.6529 22.7798 29.264 24.0612 29.0918C25.259 28.93 26.7544 28.93 28.4898 28.93H28.7455C30.481 28.93 31.9763 28.93 33.1742 29.0918C34.4581 29.264 35.6873 29.6529 36.6842 30.6498C37.6811 31.6467 38.0699 32.8758 38.2421 34.1598C38.4039 35.3576 38.4039 36.853 38.4039 38.5884V49.8074H47.5378V19.8223ZM34.4894 49.8074V38.7163C34.4894 36.8164 34.4842 35.5847 34.3642 34.6817C34.2493 33.8336 34.0667 33.5674 33.9153 33.4186C33.7639 33.2699 33.5004 33.0846 32.6522 32.9698C31.7467 32.8497 30.5175 32.8445 28.6177 32.8445C26.7178 32.8445 25.4861 32.8497 24.5831 32.9698C23.735 33.0846 23.4688 33.2699 23.32 33.4186C23.1713 33.5674 22.986 33.8336 22.8712 34.6817C22.7511 35.5873 22.7459 36.8164 22.7459 38.7163V49.8074H34.4894ZM28.6177 15.8817C28.1893 15.8817 27.7651 15.966 27.3693 16.13C26.9736 16.2939 26.6139 16.5342 26.311 16.8371C26.0081 17.14 25.7678 17.4996 25.6039 17.8954C25.44 18.2912 25.3556 18.7154 25.3556 19.1437C25.3556 19.5721 25.44 19.9963 25.6039 20.3921C25.7678 20.7879 26.0081 21.1475 26.311 21.4504C26.6139 21.7533 26.9736 21.9936 27.3693 22.1575C27.7651 22.3215 28.1893 22.4058 28.6177 22.4058C29.4828 22.4058 30.3126 22.0621 30.9243 21.4504C31.5361 20.8386 31.8798 20.0089 31.8798 19.1437C31.8798 18.2786 31.5361 17.4489 30.9243 16.8371C30.3126 16.2253 29.4828 15.8817 28.6177 15.8817ZM21.4411 19.1437C21.4411 17.2404 22.1972 15.415 23.5431 14.0691C24.8889 12.7233 26.7143 11.9671 28.6177 11.9671C30.521 11.9671 32.3464 12.7233 33.6923 14.0691C35.0382 15.415 35.7943 17.2404 35.7943 19.1437C35.7943 21.0471 35.0382 22.8725 33.6923 24.2184C32.3464 25.5642 30.521 26.3203 28.6177 26.3203C26.7143 26.3203 24.8889 25.5642 23.5431 24.2184C22.1972 22.8725 21.4411 21.0471 21.4411 19.1437Z" fill="#a27d27"/>
</svg>
