<svg width="55" height="55" viewBox="0 0 55 55" fill="none" xmlns="http://www.w3.org/2000/svg">
<path d="M49.1275 21.8516C49.1275 21.3009 48.9088 20.7729 48.5194 20.3835C48.1301 19.9941 47.602 19.7754 47.0513 19.7754C46.5007 19.7754 45.9726 19.9941 45.5832 20.3835C45.1939 20.7729 44.9751 21.3009 44.9751 21.8516H49.1275ZM10.3719 21.8516C10.3719 21.3009 10.1532 20.7729 9.76381 20.3835C9.37445 19.9941 8.84636 19.7754 8.29572 19.7754C7.74508 19.7754 7.21699 19.9941 6.82763 20.3835C6.43827 20.7729 6.21953 21.3009 6.21953 21.8516H10.3719ZM51.1207 28.8553C51.3107 29.0593 51.5399 29.2229 51.7946 29.3363C52.0493 29.4498 52.3242 29.5108 52.603 29.5158C52.8818 29.5207 53.1587 29.4694 53.4172 29.365C53.6757 29.2605 53.9106 29.1051 54.1077 28.908C54.3049 28.7108 54.4603 28.476 54.5647 28.2175C54.6691 27.9589 54.7204 27.682 54.7155 27.4033C54.7106 27.1245 54.6496 26.8496 54.5361 26.5949C54.4226 26.3402 54.259 26.111 54.055 25.9209L51.1207 28.8553ZM27.6735 2.47378L29.1407 1.0066C28.7514 0.617801 28.2237 0.399414 27.6735 0.399414C27.1233 0.399414 26.5956 0.617801 26.2063 1.0066L27.6735 2.47378ZM1.29203 25.9209C1.08805 26.111 0.924438 26.3402 0.810962 26.5949C0.697485 26.8496 0.636467 27.1245 0.631549 27.4033C0.62663 27.682 0.677911 27.9589 0.782333 28.2175C0.886754 28.476 1.04218 28.7108 1.23933 28.908C1.43648 29.1051 1.67132 29.2605 1.92985 29.365C2.18837 29.4694 2.46527 29.5207 2.74405 29.5158C3.02282 29.5108 3.29774 29.4498 3.55242 29.3363C3.8071 29.2229 4.03631 29.0593 4.22638 28.8553L1.29203 25.9209ZM13.8322 54.3786H41.5148V50.2262H13.8322V54.3786ZM49.1275 46.7659V21.8516H44.9751V46.7659H49.1275ZM10.3719 46.7659V21.8516H6.21953V46.7659H10.3719ZM54.055 25.9209L29.1407 1.0066L26.2063 3.94096L51.1207 28.8553L54.055 25.9209ZM26.2063 1.0066L1.29203 25.9209L4.22638 28.8553L29.1407 3.94096L26.2063 1.0066ZM41.5148 54.3786C43.5338 54.3786 45.4701 53.5765 46.8978 52.1489C48.3255 50.7212 49.1275 48.7849 49.1275 46.7659H44.9751C44.9751 48.676 43.4249 50.2262 41.5148 50.2262V54.3786ZM13.8322 50.2262C11.9221 50.2262 10.3719 48.676 10.3719 46.7659H6.21953C6.21953 48.7849 7.02158 50.7212 8.44924 52.1489C9.8769 53.5765 11.8132 54.3786 13.8322 54.3786V50.2262Z" fill="#a27d27"/>
<path d="M29.1174 44.1386C28.5379 43.9839 28.0636 43.621 27.5439 43.3467C27.0696 43.0972 26.6035 42.8291 26.1354 42.563C25.9869 42.4785 25.8384 42.4414 25.6673 42.4414C24.7351 42.4455 23.803 42.4455 22.8688 42.4434C22.0563 42.4414 21.6294 42.0104 21.6274 41.1958C21.6274 40.8906 21.6191 40.5833 21.6294 40.2781C21.6356 40.1173 21.5841 40.0224 21.4376 39.942C20.5488 39.4532 19.6641 38.9562 18.7794 38.4613C18.1216 38.0942 17.9545 37.4962 18.3237 36.8342C18.6763 36.2032 19.0248 35.568 19.3857 34.9411C19.4723 34.7905 19.4517 34.7142 19.3115 34.6173C18.7237 34.2193 18.1463 33.811 17.5627 33.4088C16.8863 32.9428 16.7749 32.3654 17.2472 31.6848C18.6578 29.6494 20.0724 27.6161 21.4871 25.5848C21.5861 25.4425 21.6356 25.3022 21.6315 25.129C21.6232 24.764 21.6253 24.3969 21.6294 24.0319C21.6377 23.3864 22.0769 22.8977 22.7203 22.9183C23.1823 22.9327 23.4607 22.7905 23.7123 22.3986C24.0608 21.8563 24.6794 21.7841 25.2259 22.145C25.4878 22.3182 25.7456 22.4956 25.9993 22.6812C26.1209 22.7698 26.1869 22.7513 26.257 22.6172C26.3932 22.3533 26.5437 22.0934 26.6901 21.8336C27.0366 21.219 27.6305 21.0458 28.2512 21.3881C29.0947 21.8521 29.934 22.3223 30.7713 22.7946C30.9053 22.8709 31.0414 22.9059 31.1961 22.9039C32.1364 22.8998 33.0768 22.9018 34.0172 22.9018C34.8318 22.9018 35.2607 23.3328 35.2628 24.1453C35.2628 24.467 35.269 24.7867 35.2607 25.1084C35.2566 25.2466 35.3102 25.3249 35.4298 25.3909C36.3186 25.8817 37.2013 26.3808 38.088 26.8716C38.7706 27.249 38.9418 27.845 38.5582 28.5276C38.2159 29.14 37.8818 29.7566 37.5312 30.3629C37.4281 30.5403 37.4364 30.6352 37.6178 30.7568C38.1891 31.1363 38.7438 31.5405 39.313 31.924C39.5811 32.1055 39.7935 32.3241 39.909 32.6293C39.909 32.8087 39.909 32.9881 39.909 33.1676C39.8347 33.3985 39.6966 33.5924 39.5604 33.7883C38.2571 35.6628 36.9641 37.5436 35.6443 39.4078C35.3679 39.7997 35.2009 40.1832 35.2587 40.6637C35.2834 40.8762 35.2648 41.0968 35.2628 41.3133C35.2525 41.9712 34.8091 42.4579 34.1533 42.4311C33.7037 42.4125 33.4398 42.5569 33.1944 42.9322C32.8273 43.4952 32.2127 43.5715 31.6498 43.192C31.4085 43.0291 31.1651 42.8683 30.9342 42.693C30.7754 42.5734 30.695 42.6105 30.6125 42.7755C30.5032 42.9961 30.365 43.2023 30.2557 43.423C30.0639 43.8086 29.7711 44.0582 29.3421 44.1386C29.2658 44.1386 29.1916 44.1386 29.1174 44.1386ZM34.6255 32.6871C34.6255 29.868 34.6255 27.0469 34.6255 24.2278C34.6255 24.1165 34.6276 24.003 34.6091 23.8937C34.5781 23.704 34.4585 23.5885 34.2688 23.5597C34.1801 23.5452 34.0894 23.5473 34.0007 23.5473C30.3011 23.5473 26.5994 23.5473 22.8997 23.5473C22.8173 23.5473 22.7348 23.5473 22.6543 23.5555C22.4399 23.5782 22.3017 23.7123 22.277 23.9288C22.2666 24.0257 22.2666 24.1227 22.2666 24.2196C22.2666 29.8598 22.2666 35.4999 22.2666 41.1381C22.2666 41.2432 22.2646 41.3484 22.2811 41.4515C22.312 41.6515 22.4337 41.7691 22.6337 41.8C22.7141 41.8124 22.7966 41.8103 22.8791 41.8103C26.5932 41.8103 30.3093 41.8103 34.0234 41.8103C34.1059 41.8103 34.1884 41.8124 34.2688 41.798C34.4585 41.767 34.5781 41.6515 34.6091 41.4618C34.6255 41.3525 34.6255 41.2391 34.6255 41.1277C34.6255 38.3128 34.6255 35.4999 34.6255 32.6871ZM35.2751 38.851C35.3226 38.7912 35.3515 38.7603 35.3762 38.7253C36.628 36.9249 37.8777 35.1246 39.1274 33.3222C39.412 32.9118 39.3707 32.7262 38.9542 32.4375C37.789 31.6291 36.6259 30.8208 35.4608 30.0144C35.4092 29.9773 35.3638 29.9196 35.2751 29.9299C35.2751 32.8912 35.2751 35.8526 35.2751 38.851ZM21.6212 26.5086C21.5799 26.5519 21.5634 26.5664 21.5511 26.5829C20.2725 28.4203 18.996 30.2578 17.7215 32.0973C17.4947 32.4252 17.54 32.6417 17.872 32.8727C19.0723 33.7079 20.2725 34.541 21.4748 35.3741C21.5139 35.4009 21.5511 35.4504 21.6212 35.4216C21.6212 32.4623 21.6212 29.503 21.6212 26.5086ZM38.1437 27.8862C38.1272 27.6738 38.0035 27.5418 37.8344 27.4449C37.0404 27.0015 36.2444 26.5602 35.4504 26.1127C35.3061 26.0323 35.2587 26.0529 35.2607 26.2241C35.2648 27.1273 35.2648 28.0306 35.2607 28.9318C35.2607 29.0658 35.3061 29.1524 35.4174 29.2267C35.8567 29.5236 36.2939 29.8226 36.7228 30.134C36.8569 30.231 36.9187 30.2083 36.995 30.0701C37.3415 29.4349 37.6983 28.806 38.0488 28.1729C38.0963 28.0842 38.1334 27.9873 38.1437 27.8862ZM21.6294 37.7725C21.6294 37.325 21.6274 36.8775 21.6315 36.43C21.6315 36.3104 21.6109 36.2176 21.5016 36.1433C21.0499 35.8381 20.6024 35.5288 20.1591 35.2133C20.0291 35.1205 19.9735 35.1555 19.9054 35.2793C19.5528 35.9206 19.1919 36.5558 18.8413 37.1951C18.6763 37.4941 18.7382 37.723 19.0372 37.8942C19.8415 38.352 20.6519 38.7954 21.4583 39.2491C21.6026 39.3315 21.6356 39.2841 21.6335 39.1377C21.6274 38.6819 21.6294 38.2262 21.6294 37.7725ZM29.6082 22.908C29.6102 22.8936 29.6143 22.8771 29.6164 22.8626C29.0514 22.5492 28.4884 22.2295 27.9192 21.9223C27.647 21.7779 27.4222 21.8398 27.2634 22.0934C27.1252 22.3141 27.0077 22.5471 26.8778 22.774C26.8221 22.8688 26.8448 22.9101 26.9541 22.9101C27.8388 22.908 28.7235 22.908 29.6082 22.908ZM27.2882 42.4455C27.282 42.4599 27.2758 42.4764 27.2675 42.4909C27.8532 42.8126 28.4327 43.1425 29.0246 43.4539C29.2658 43.5797 29.4844 43.4972 29.635 43.2518C29.7628 43.0435 29.8721 42.8208 29.9979 42.6105C30.0742 42.4806 30.0433 42.4455 29.901 42.4455C29.0307 42.4476 28.1605 42.4455 27.2882 42.4455ZM31.7508 42.4476C31.7426 42.4641 31.7364 42.4806 31.7281 42.4971C31.8498 42.5775 31.9653 42.6703 32.0952 42.7363C32.3159 42.8476 32.551 42.7816 32.6891 42.5899C32.7634 42.4867 32.7407 42.4455 32.6169 42.4455C32.3282 42.4476 32.0395 42.4476 31.7508 42.4476ZM25.1496 22.908C25.0341 22.7678 24.9104 22.6647 24.7599 22.6028C24.5454 22.5141 24.3103 22.5925 24.1928 22.7781C24.1433 22.8564 24.1433 22.9039 24.2484 22.9059C24.5495 22.908 24.8485 22.908 25.1496 22.908Z" fill="#a27d27"/>
<path d="M27.2654 29.7913C27.6366 29.7851 27.9769 29.8882 28.2862 30.0841C28.3914 30.1522 28.4759 30.1645 28.5914 30.0965C29.5091 29.5603 30.532 29.7418 31.1774 30.5481C31.794 31.3173 31.7281 32.3917 30.9898 33.1548C30.2536 33.9157 29.4967 34.6561 28.7461 35.4026C28.546 35.6026 28.3769 35.6232 28.1996 35.4459C27.3829 34.6293 26.5251 33.8477 25.7641 32.9774C25.2362 32.3732 25.1537 31.6555 25.4919 30.9276C25.8342 30.1852 26.4467 29.814 27.2654 29.7913ZM27.2303 30.4017C27.1747 30.4099 27.0922 30.4161 27.0117 30.4306C25.9683 30.6347 25.5414 31.9051 26.3374 32.7114C26.9973 33.3816 27.6675 34.0395 28.3254 34.7097C28.4471 34.8334 28.511 34.7633 28.5955 34.6767C29.1008 34.1694 29.6081 33.6641 30.1133 33.1568C30.2969 32.9712 30.4907 32.7939 30.6536 32.5918C31.1073 32.035 31.064 31.2761 30.567 30.7873C30.0659 30.2965 29.3153 30.2738 28.7585 30.7358C28.4945 30.9544 28.3955 30.9564 28.1377 30.7358C27.882 30.5213 27.5871 30.4161 27.2303 30.4017Z" fill="#a27d27"/>
<path d="M31.7942 38.1748C32.1221 38.348 32.4994 38.2264 32.8851 38.1996C33.312 38.1686 33.6543 38.4058 33.8461 38.8079C34.0317 39.2018 33.9904 39.5874 33.7203 39.9194C33.3738 40.3484 32.9614 40.7175 32.5654 41.1032C32.417 41.2475 32.2396 41.2661 32.087 41.1176C31.6807 40.7237 31.2518 40.3484 30.8992 39.905C30.6269 39.5627 30.5981 39.1667 30.8043 38.7708C31.0023 38.3934 31.3302 38.2181 31.7942 38.1748ZM31.3178 39.276C31.3137 39.3833 31.3425 39.4823 31.4188 39.5606C31.6828 39.8328 31.953 40.1009 32.219 40.3711C32.2953 40.4494 32.3572 40.4309 32.4252 40.3608C32.6809 40.1009 32.9449 39.8493 33.1944 39.5833C33.3635 39.4018 33.3615 39.144 33.213 38.9729C33.0624 38.7976 32.8088 38.7522 32.6087 38.9028C32.3943 39.0636 32.2149 39.0595 32.0086 38.8945C31.8705 38.7832 31.6993 38.7914 31.5446 38.8698C31.3858 38.9502 31.3095 39.0904 31.3178 39.276Z" fill="#a27d27"/>
<path d="M26.2159 25.2322C26.2076 25.523 26.0818 25.7931 25.857 26.02C25.5312 26.3479 25.2054 26.6778 24.8754 26.9995C24.6506 27.2181 24.5001 27.2202 24.2794 27.0016C23.9185 26.6448 23.5556 26.2901 23.2153 25.9148C22.9184 25.589 22.8544 25.1992 23.0318 24.7888C23.1988 24.4011 23.5061 24.131 23.9247 24.1537C24.3619 24.1764 24.7929 24.1578 25.228 24.1557C25.7972 24.1578 26.2117 24.6548 26.2159 25.2322ZM24.0526 24.7641C23.8381 24.7662 23.6917 24.8486 23.6154 25.0198C23.537 25.1951 23.5535 25.3745 23.6896 25.5189C23.9412 25.7828 24.2052 26.0365 24.4588 26.3004C24.5558 26.4015 24.6259 26.385 24.7166 26.2922C24.9393 26.0612 25.1724 25.8406 25.3951 25.6096C25.6096 25.3869 25.6405 25.1229 25.4796 24.927C25.3147 24.7249 25.0837 24.7063 24.8032 24.894C24.6362 25.0054 24.4877 25.0033 24.333 24.8796C24.2444 24.8074 24.1474 24.7538 24.0526 24.7641Z" fill="#a27d27"/>
</svg>
